<svg xmlns="http://www.w3.org/2000/svg" viewBox="0 0 1920 720" role="img" aria-label="Composici?n de productos escolares">
  <defs>
    <linearGradient id="bg" x1="0" y1="0" x2="1" y2="0"><stop offset="0" stop-color="#061B2E"/><stop offset="0.34" stop-color="#061B2E"/><stop offset="1" stop-color="#0A4F78"/></linearGradient>
    <linearGradient id="leftShade" x1="0" y1="0" x2="1" y2="0"><stop offset="0" stop-color="#061B2E" stop-opacity="1"/><stop offset="0.45" stop-color="#061B2E" stop-opacity="0.72"/><stop offset="1" stop-color="#061B2E" stop-opacity="0"/></linearGradient>
    <filter id="shadow" x="-30%" y="-30%" width="160%" height="160%"><feDropShadow dx="0" dy="18" stdDeviation="16" flood-color="#000" flood-opacity=".28"/></filter>
  </defs>
  <rect width="1920" height="720" fill="url(#bg)"/>
  <g opacity=".18"><circle cx="1430" cy="130" r="220" fill="#009DBA"/><circle cx="1720" cy="600" r="260" fill="#FFC400"/><path d="M760 70h980" stroke="#fff" stroke-width="2" stroke-dasharray="10 18"/></g>
  <g filter="url(#shadow)">
    <rect x="690" y="178" width="330" height="430" rx="28" fill="#fff" transform="rotate(-8 855 393)"/><rect x="730" y="214" width="250" height="24" rx="12" fill="#009DBA" transform="rotate(-8 855 393)"/><rect x="754" y="270" width="210" height="18" rx="9" fill="#E6EEF2" transform="rotate(-8 855 393)"/><rect x="752" y="314" width="188" height="18" rx="9" fill="#E6EEF2" transform="rotate(-8 855 393)"/>
    <rect x="1005" y="118" width="290" height="460" rx="24" fill="#00A6C8" transform="rotate(5 1150 348)"/><rect x="1042" y="160" width="216" height="330" rx="18" fill="#F4F8FA" transform="rotate(5 1150 348)"/>
    <rect x="1248" y="190" width="430" height="300" rx="32" fill="#003B73" transform="rotate(-3 1463 340)"/><path d="M1305 260c0-54 42-94 98-94h120c64 0 108 45 108 108v172h-326z" fill="#009DBA" opacity=".92" transform="rotate(-3 1463 340)"/><rect x="1325" y="420" width="280" height="38" rx="18" fill="#061B2E" transform="rotate(-3 1463 340)"/>
    <g transform="translate(915 85) rotate(-12)"><rect x="0" y="0" width="22" height="470" rx="11" fill="#FFC400"/><polygon points="0,0 22,0 11,-42" fill="#F4C79C"/><polygon points="8,-28 14,-28 11,-42" fill="#101820"/></g>
    <g transform="translate(980 78) rotate(-8)"><rect x="0" y="0" width="22" height="480" rx="11" fill="#F04444"/><polygon points="0,0 22,0 11,-42" fill="#F4C79C"/><polygon points="8,-28 14,-28 11,-42" fill="#101820"/></g>
    <g transform="translate(1048 70) rotate(-4)"><rect x="0" y="0" width="22" height="490" rx="11" fill="#2A71E8"/><polygon points="0,0 22,0 11,-42" fill="#F4C79C"/><polygon points="8,-28 14,-28 11,-42" fill="#101820"/></g>
    <g transform="translate(1128 80) rotate(2)"><rect x="0" y="0" width="22" height="470" rx="11" fill="#39B54A"/><polygon points="0,0 22,0 11,-42" fill="#F4C79C"/><polygon points="8,-28 14,-28 11,-42" fill="#101820"/></g>
    <g transform="translate(1210 96) rotate(8)"><rect x="0" y="0" width="22" height="450" rx="11" fill="#9B59B6"/><polygon points="0,0 22,0 11,-42" fill="#F4C79C"/><polygon points="8,-28 14,-28 11,-42" fill="#101820"/></g>
    <rect x="1390" y="88" width="360" height="44" rx="10" fill="#E6EEF2" transform="rotate(12 1570 110)"/><g transform="translate(1416 92) rotate(12)"><path d="M20 0v44M70 0v30M120 0v44M170 0v30M220 0v44M270 0v30M320 0v44" stroke="#60717D" stroke-width="4" opacity=".55"/></g>
    <g transform="translate(1560 208) rotate(10)"><rect width="90" height="270" rx="24" fill="#FFC400"/><rect x="15" y="42" width="60" height="190" rx="14" fill="#fff" opacity=".92"/><rect x="22" y="225" width="46" height="22" rx="8" fill="#061B2E" opacity=".18"/></g>
    <g transform="translate(1688 260) rotate(-10)"><rect width="88" height="230" rx="22" fill="#fff"/><rect x="14" y="20" width="60" height="60" rx="12" fill="#009DBA"/><rect x="14" y="94" width="60" height="118" rx="12" fill="#FFC400"/></g>
    <g transform="translate(1335 515) rotate(-2)"><rect width="310" height="105" rx="22" fill="#fff"/><circle cx="54" cy="52" r="28" fill="#F04444"/><circle cx="116" cy="52" r="28" fill="#FFC400"/><circle cx="178" cy="52" r="28" fill="#009DBA"/><circle cx="240" cy="52" r="28" fill="#39B54A"/></g>
    <g transform="translate(845 562) rotate(1)"><rect width="400" height="74" rx="18" fill="#fff"/><rect x="24" y="20" width="350" height="14" rx="7" fill="#E6EEF2"/><rect x="24" y="42" width="280" height="14" rx="7" fill="#E6EEF2"/></g>
  </g>
  <rect width="1920" height="720" fill="url(#leftShade)"/>
</svg>