<svg xmlns="http://www.w3.org/2000/svg" viewBox="0 0 800 600" role="img" aria-label="Crayones"><defs><filter id="s" x="-30%" y="-30%" width="160%" height="160%"><feDropShadow dx="0" dy="20" stdDeviation="18" flood-color="#061B2E" flood-opacity=".16"/></filter></defs><rect width="800" height="600" fill="#E6EEF2"/><circle cx="650" cy="80" r="140" fill="#009DBA" opacity=".12"/><circle cx="120" cy="520" r="170" fill="#FFC400" opacity=".16"/><g filter="url(#s)"><g transform="translate(210 105) rotate(-14)"><rect width="34" height="360" rx="17" fill="#009DBA"/><polygon points="0,0 34,0 17,-52" fill="#E9BE8F"/><polygon points="12,-34 22,-34 17,-52" fill="#101820"/></g><g transform="translate(266 105) rotate(-8)"><rect width="34" height="360" rx="17" fill="#39B54A"/><polygon points="0,0 34,0 17,-52" fill="#E9BE8F"/><polygon points="12,-34 22,-34 17,-52" fill="#101820"/></g><g transform="translate(322 105) rotate(-2)"><rect width="34" height="360" rx="17" fill="#003B73"/><polygon points="0,0 34,0 17,-52" fill="#E9BE8F"/><polygon points="12,-34 22,-34 17,-52" fill="#101820"/></g><g transform="translate(378 105) rotate(4)"><rect width="34" height="360" rx="17" fill="#9B59B6"/><polygon points="0,0 34,0 17,-52" fill="#E9BE8F"/><polygon points="12,-34 22,-34 17,-52" fill="#101820"/></g><g transform="translate(434 105) rotate(10)"><rect width="34" height="360" rx="17" fill="#F04444"/><polygon points="0,0 34,0 17,-52" fill="#E9BE8F"/><polygon points="12,-34 22,-34 17,-52" fill="#101820"/></g><g transform="translate(490 105) rotate(16)"><rect width="34" height="360" rx="17" fill="#FFC400"/><polygon points="0,0 34,0 17,-52" fill="#E9BE8F"/><polygon points="12,-34 22,-34 17,-52" fill="#101820"/></g></g></svg>