<svg xmlns="http://www.w3.org/2000/svg" viewBox="0 0 800 600" role="img" aria-label="Engargolados"><defs><filter id="s" x="-30%" y="-30%" width="160%" height="160%"><feDropShadow dx="0" dy="20" stdDeviation="18" flood-color="#061B2E" flood-opacity=".16"/></filter></defs><rect width="800" height="600" fill="#E6EEF2"/><circle cx="650" cy="80" r="140" fill="#009DBA" opacity=".12"/><circle cx="120" cy="520" r="170" fill="#FFC400" opacity=".16"/><g filter="url(#s)"><rect x="220" y="135" width="360" height="390" rx="24" fill="#fff"/><path d="M260 160v340" stroke="#101820" stroke-width="18"/><path d="M260 185c60 0 60 30 0 30M260 245c60 0 60 30 0 30M260 305c60 0 60 30 0 30M260 365c60 0 60 30 0 30M260 425c60 0 60 30 0 30" stroke="#101820" stroke-width="10" fill="none"/></g></svg>