<svg xmlns="http://www.w3.org/2000/svg" viewBox="0 0 800 600" role="img" aria-label="Plastilina"><defs><filter id="s" x="-30%" y="-30%" width="160%" height="160%"><feDropShadow dx="0" dy="20" stdDeviation="18" flood-color="#061B2E" flood-opacity=".16"/></filter></defs><rect width="800" height="600" fill="#F4F8FA"/><circle cx="650" cy="80" r="140" fill="#009DBA" opacity=".12"/><circle cx="120" cy="520" r="170" fill="#FFC400" opacity=".16"/><g filter="url(#s)"><rect x="175" y="250" width="58" height="160" rx="29" fill="#F04444" transform="rotate(-12 204 330)"/><rect x="247" y="250" width="58" height="160" rx="29" fill="#FFC400" transform="rotate(-6 276 330)"/><rect x="319" y="250" width="58" height="160" rx="29" fill="#009DBA" transform="rotate(0 348 330)"/><rect x="391" y="250" width="58" height="160" rx="29" fill="#39B54A" transform="rotate(6 420 330)"/><rect x="463" y="250" width="58" height="160" rx="29" fill="#9B59B6" transform="rotate(12 492 330)"/><rect x="535" y="250" width="58" height="160" rx="29" fill="#003B73" transform="rotate(18 564 330)"/></g></svg>