<svg xmlns="http://www.w3.org/2000/svg" viewBox="0 0 640 360" role="img" aria-labelledby="title desc">
  <title id="title">Contacto</title>
  <desc id="desc">Visual profesional para atención local en Mr.O Papelería.</desc>
  <defs>
    <linearGradient id="bg" x1="0" x2="1" y1="0" y2="1">
      <stop offset="0" stop-color="#172033"/>
      <stop offset="0.56" stop-color="#0B111C"/>
      <stop offset="1" stop-color="#111827"/>
    </linearGradient>
    <radialGradient id="cyan" cx="22%" cy="18%" r="62%">
      <stop offset="0" stop-color="#00A6C8" stop-opacity=".42"/>
      <stop offset="1" stop-color="#00A6C8" stop-opacity="0"/>
    </radialGradient>
    <radialGradient id="orange" cx="84%" cy="76%" r="58%">
      <stop offset="0" stop-color="#F7B21A" stop-opacity=".32"/>
      <stop offset="1" stop-color="#F7B21A" stop-opacity="0"/>
    </radialGradient>
    <pattern id="grid" width="40" height="40" patternUnits="userSpaceOnUse">
      <path d="M40 0H0v40" fill="none" stroke="#FFFFFF" stroke-opacity=".06" stroke-width="1"/>
    </pattern>
    <filter id="soft" x="-20%" y="-20%" width="140%" height="140%">
      <feDropShadow dx="0" dy="18" stdDeviation="18" flood-color="#000000" flood-opacity=".32"/>
    </filter>
  </defs>
  <rect width="640" height="360" rx="28" fill="url(#bg)"/>
  <rect width="640" height="360" rx="28" fill="url(#grid)"/>
  <rect width="640" height="360" rx="28" fill="url(#cyan)"/>
  <rect width="640" height="360" rx="28" fill="url(#orange)"/>
  <path d="M38 292C148 222 232 318 334 236C446 146 496 204 604 114" fill="none" stroke="#00A6C8" stroke-opacity=".34" stroke-width="2"/>
  <path d="M84 76h122M84 100h74M474 274h92M474 300h56" stroke="#FFFFFF" stroke-opacity=".22" stroke-width="5" stroke-linecap="round"/>
  <g filter="url(#soft)">
    <rect x="138" y="54" width="364" height="252" rx="28" fill="#0B111C" fill-opacity=".56" stroke="#FFFFFF" stroke-opacity=".16"/>
    <g fill="none" stroke="#F8FAFC" stroke-width="10" stroke-linecap="round" stroke-linejoin="round"><path d="M176 112h288v154H246l-70 62z"/><path d="M224 162h166M224 208h118"/><circle cx="412" cy="210" r="9"/></g>
  </g>
  <rect x="34" y="284" width="226" height="42" rx="21" fill="#0B111C" fill-opacity=".72" stroke="#FFFFFF" stroke-opacity=".16"/>
  <text x="56" y="312" fill="#F8FAFC" font-family="Inter, Arial, sans-serif" font-size="20" font-weight="800">Contacto</text>
  <circle cx="570" cy="66" r="18" fill="#F7B21A"/>
  <circle cx="602" cy="66" r="8" fill="#00A6C8"/>
</svg>
