<svg xmlns="http://www.w3.org/2000/svg" viewBox="0 0 640 360" role="img" aria-labelledby="title desc">
  <title id="title">Creatividad</title>
  <desc id="desc">Visual profesional para material creativo para proyectos en Mr.O Papelería.</desc>
  <defs>
    <linearGradient id="bg" x1="0" x2="1" y1="0" y2="1">
      <stop offset="0" stop-color="#172033"/>
      <stop offset=".58" stop-color="#0B111C"/>
      <stop offset="1" stop-color="#111827"/>
    </linearGradient>
    <radialGradient id="a" cx="20%" cy="18%" r="64%">
      <stop offset="0" stop-color="#00A6C8" stop-opacity=".42"/>
      <stop offset="1" stop-color="#00A6C8" stop-opacity="0"/>
    </radialGradient>
    <radialGradient id="b" cx="84%" cy="78%" r="58%">
      <stop offset="0" stop-color="#F7B21A" stop-opacity=".32"/>
      <stop offset="1" stop-color="#F7B21A" stop-opacity="0"/>
    </radialGradient>
    <pattern id="grid" width="42" height="42" patternUnits="userSpaceOnUse">
      <path d="M42 0H0v42" fill="none" stroke="#FFFFFF" stroke-opacity=".06"/>
    </pattern>
    <filter id="shadow" x="-20%" y="-20%" width="140%" height="140%">
      <feDropShadow dx="0" dy="18" stdDeviation="18" flood-color="#000" flood-opacity=".32"/>
    </filter>
  </defs>
  <rect width="640" height="360" rx="28" fill="url(#bg)"/>
  <rect width="640" height="360" rx="28" fill="url(#grid)"/>
  <rect width="640" height="360" rx="28" fill="url(#a)"/>
  <rect width="640" height="360" rx="28" fill="url(#b)"/>
  <path d="M52 284C150 216 230 292 322 222C426 144 500 192 590 102" fill="none" stroke="#00A6C8" stroke-opacity=".34" stroke-width="2"/>
  <g filter="url(#shadow)">
    <rect x="138" y="54" width="364" height="252" rx="28" fill="#0B111C" fill-opacity=".58" stroke="#FFFFFF" stroke-opacity=".16"/>
    <g fill="none" stroke="#F8FAFC" stroke-width="10" stroke-linecap="round" stroke-linejoin="round"><path d="M196 284l42-126c8-24 42-24 50 0l42 126"/><path d="M216 226h94"/><path d="M388 104l58 58-126 126-58-58z"/><path d="M368 124l58 58"/><circle cx="204" cy="104" r="24"/><circle cx="460" cy="260" r="18"/></g>
  </g>
  <rect x="34" y="284" width="248" height="42" rx="21" fill="#0B111C" fill-opacity=".72" stroke="#FFFFFF" stroke-opacity=".16"/>
  <text x="56" y="312" fill="#F8FAFC" font-family="Inter, Arial, sans-serif" font-size="20" font-weight="800">Creatividad</text>
  <circle cx="570" cy="66" r="18" fill="#F7B21A"/>
  <circle cx="602" cy="66" r="8" fill="#00A6C8"/>
</svg>
